<?xml version="1.0" encoding="UTF-8" standalone="no"?>
<!-- Created with Inkscape (http://www.inkscape.org/) -->

<svg
   width="200"
   height="250"
   viewBox="0 0 52.916665 66.145833"
   version="1.1"
   id="svg5"
   sodipodi:docname="clubTemplate.svg"
   inkscape:export-filename="As.png"
   inkscape:export-xdpi="96"
   inkscape:export-ydpi="96"
   inkscape:version="1.2.1 (9c6d41e410, 2022-07-14)"
   xmlns:inkscape="http://www.inkscape.org/namespaces/inkscape"
   xmlns:sodipodi="http://sodipodi.sourceforge.net/DTD/sodipodi-0.dtd"
   xmlns="http://www.w3.org/2000/svg"
   xmlns:svg="http://www.w3.org/2000/svg">
  <sodipodi:namedview
     id="namedview7"
     pagecolor="#ffffff"
     bordercolor="#000000"
     borderopacity="0.25"
     inkscape:showpageshadow="2"
     inkscape:pageopacity="0.0"
     inkscape:pagecheckerboard="0"
     inkscape:deskcolor="#d1d1d1"
     inkscape:document-units="mm"
     showgrid="false"
     inkscape:zoom="1.9459579"
     inkscape:cx="104.06186"
     inkscape:cy="145.94355"
     inkscape:window-width="1227"
     inkscape:window-height="865"
     inkscape:window-x="2145"
     inkscape:window-y="47"
     inkscape:window-maximized="0"
     inkscape:current-layer="layer1" />
  <defs
     id="defs2">
    <rect
       x="20.694298"
       y="20.694298"
       width="115.45136"
       height="126.43738"
       id="rect537" />
  </defs>
  <g
     inkscape:label="Layer 1"
     inkscape:groupmode="layer"
     id="layer1">
    <rect
       style="fill:#ffffff;stroke:#000000;stroke-width:0.7"
       id="rect234"
       width="47.939873"
       height="60.837402"
       x="2.555171"
       y="2.3118215"
       ry="0.18459445" />
    <text
       xml:space="preserve"
       transform="matrix(0.26458333,0,0,0.26458333,-1.7034473,-3.5285694)"
       id="text535"
       style="font-style:normal;font-variant:normal;font-weight:300;font-stretch:normal;font-size:106.667px;font-family:Calibri;-inkscape-font-specification:'Calibri, Light';font-variant-ligatures:normal;font-variant-caps:normal;font-variant-numeric:normal;font-variant-east-asian:normal;text-align:center;white-space:pre;shape-inside:url(#rect537);display:inline;fill:#ffffff;stroke:#000000;stroke-width:2.64567"><tspan
         x="51.388587"
         y="114.02698"
         id="tspan5448"><tspan
           style="fill:#0e0000"
           id="tspan5446">2</tspan></tspan></text>
    <path
       style="fill:#00b71a;fill-opacity:1;stroke:#000000;stroke-width:0.7"
       d="m 24.881705,56.289759 c 0.410552,0.117714 2.805059,-0.186184 2.991244,0 0.181287,0.181288 -0.22661,0.135965 0.135964,0.135965 0.743109,0 1.42117,0.27193 2.175449,0.27193 0.425868,0 2.93447,0.113552 3.127211,-0.27193 0.157499,-0.315 -0.243808,-0.420794 -0.407897,-0.543862 -0.351227,-0.263419 -0.675474,-0.639114 -1.087726,-0.815792 -0.226608,-0.09064 -0.453218,-0.18129 -0.679829,-0.271934 -0.04532,-0.04532 -0.07864,-0.107302 -0.135964,-0.135964 -0.04054,-0.02027 -0.103918,0.03205 -0.135967,0 -0.03205,-0.03205 0.03205,-0.103918 0,-0.135967 -0.03205,-0.03205 -0.09543,0.02027 -0.135964,0 -0.345924,-0.17296 -0.99827,-0.923128 -1.22369,-1.22369 -0.05439,-0.07251 0.04054,-0.190857 0,-0.271931 -0.311131,-0.62226 0.05635,0.576959 -0.271933,-0.407897 -0.09563,-0.28689 -0.118621,-0.509175 -0.271931,-0.815792 -0.0608,-0.121614 0.03298,-0.275993 0,-0.407898 -0.05368,-0.214731 -0.28639,-1.345195 -0.135964,-1.495621 0.07566,-0.07566 1.366046,0.626719 1.631588,0.679829 0.601199,0.120239 1.174194,0.259556 1.767551,0.407894 0.368081,0.09202 1.007285,0 1.359657,0 0.257974,0 0.693261,0.06462 0.951759,0 0.4314,-0.107849 0.999117,-0.439467 1.359657,-0.679828 0.261472,-0.174313 0.418354,-0.505513 0.679825,-0.679826 0.08432,-0.05622 0.215718,-0.05164 0.271934,-0.135966 0.05028,-0.07542 -0.02867,-0.185939 0,-0.271931 0.07166,-0.214982 0.306554,-0.341178 0.407895,-0.543862 0.248449,-0.496898 0.458647,-1.479338 0.271931,-2.039485 -0.0058,-0.01738 -0.514655,-0.650623 -0.543862,-0.679828 -0.03205,-0.03205 -0.09064,0 -0.135964,0 -0.04532,-0.04532 -0.100412,-0.08263 -0.135967,-0.135964 -0.399957,-0.599938 -0.988454,-1.174057 -1.631587,-1.495624 -0.207299,-0.103647 -1.280647,-0.328887 -1.359657,-0.407897 -0.03205,-0.03205 0.03205,-0.103918 0,-0.135964 -0.08038,-0.08038 -0.557681,0.01744 -0.679826,0 -0.801084,-0.11444 -1.508262,-0.135967 -2.311416,-0.135967 -0.09064,0 -0.207838,0.0641 -0.27193,0 -0.03636,-0.03636 0.120134,-0.600676 0.135964,-0.679828 0.06757,-0.337844 0.191704,-0.630846 0.27193,-0.951759 0.06148,-0.245923 0.07149,-2.096953 0,-2.311414 -0.328284,-0.984856 0.0392,0.214363 -0.27193,-0.407897 -0.147736,-0.295471 -0.193114,-0.683281 -0.407898,-0.951759 -0.120118,-0.150149 -0.292526,-0.254069 -0.407895,-0.407898 -0.02719,-0.03626 0.03205,-0.103918 0,-0.135964 -0.03205,-0.03205 -0.09543,0.02027 -0.135966,0 -0.114655,-0.05733 -0.16527,-0.200827 -0.271931,-0.271933 -0.593836,-0.395889 0.04482,0.06026 -0.543862,-0.135965 -0.453557,-0.151185 -0.770133,-0.392676 -1.22369,-0.543861 -0.71605,-0.238683 -1.699317,-0.135967 -2.447382,-0.135967 -0.157978,0 -0.743639,-0.06937 -0.951759,0 -0.984855,0.328285 0.214364,-0.0392 -0.407897,0.271931 -0.218299,0.109151 -0.467919,0.150842 -0.679828,0.271931 -0.222599,0.127201 -0.362575,0.362577 -0.543862,0.543864 -0.07166,0.07166 -0.200271,0.0643 -0.271931,0.135964 -0.101343,0.101343 -0.04997,0.29324 -0.135966,0.407898 -0.07691,0.102552 -0.200824,0.165272 -0.271931,0.27193 -0.05028,0.07542 0.04054,0.190858 0,0.271931 -0.297213,0.594426 -0.271931,1.340805 -0.271931,2.039485 0,0.326409 -0.119393,0.925209 0,1.22369 0.06069,0.151723 0.211242,0.256175 0.271931,0.407898 0.120222,0.300556 -0.0063,0.534376 0.271931,0.951759 0.213234,0.319852 0.543862,1.228111 0.543862,0.815792 0,-0.278127 -1.845861,-0.27193 -2.311415,-0.27193 -0.924054,0 -1.773236,0.0038 -2.583346,0.543861 -0.518494,0.345662 -1.090341,1.092957 -1.359656,1.631588 -0.17518,0.350358 0.06035,2.638602 0.271931,2.991244 0.05214,0.0869 0.200271,0.0643 0.271931,0.135964 0.14332,0.143322 0.15032,0.381714 0.271931,0.543864 0.294046,0.39206 0.196445,0.176284 0.543863,0.407895 0.08233,0.05489 0.266241,0.405053 0.271931,0.407898 0.08107,0.04054 0.182198,-0.01283 0.271931,0 0.228774,0.03268 0.454234,0.08583 0.679828,0.135966 0.443612,0.09858 0.937501,0.03043 1.359656,0.135964 0.06218,0.01556 0.07379,0.120423 0.135966,0.135967 0.896297,0.224073 2.202557,-0.08154 2.855277,-0.407897 0.260174,-0.130088 0.714822,-0.01749 0.95176,-0.135964 0.162475,-0.08124 1.688479,-0.894869 1.767552,-0.815796 0.10887,0.108871 -0.200123,0.944111 -0.271931,1.087726 -0.05369,0.107371 0.03822,0.29323 0,0.407895 -0.07045,0.211339 -0.228424,0.462293 -0.271931,0.679829 -0.03555,0.177768 0.08107,0.381714 0,0.543864 -0.188368,0.376735 -0.263129,0.925351 -0.407897,1.359654 -0.07557,0.226706 -0.205522,0.344638 -0.271931,0.543864 -0.165874,0.497621 -0.232382,0.05687 -0.407897,0.407895 -0.03854,0.07707 -0.3781,0.650034 -0.407897,0.679828 -0.03205,0.03205 -0.103918,-0.03205 -0.135965,0 -0.02505,0.02506 -0.110912,0.382845 -0.135966,0.407898 -0.03205,0.03205 -0.103918,-0.03205 -0.135965,0 -0.06409,0.0641 0.06409,0.207835 0,0.271931 -0.03205,0.03205 -0.181288,0 -0.135966,0 0.503654,0 0.813936,0.04501 1.359656,0.135966 z"
       id="path2867" />
  </g>
</svg>
