<?xml version="1.0" encoding="UTF-8" standalone="no"?>
<!-- Created with Inkscape (http://www.inkscape.org/) -->

<svg
   width="200"
   height="250"
   viewBox="0 0 52.916665 66.145833"
   version="1.1"
   id="svg5"
   sodipodi:docname="diamondTemplate.svg"
   inkscape:export-filename="Ac.png"
   inkscape:export-xdpi="96"
   inkscape:export-ydpi="96"
   inkscape:version="1.2.1 (9c6d41e410, 2022-07-14)"
   xmlns:inkscape="http://www.inkscape.org/namespaces/inkscape"
   xmlns:sodipodi="http://sodipodi.sourceforge.net/DTD/sodipodi-0.dtd"
   xmlns="http://www.w3.org/2000/svg"
   xmlns:svg="http://www.w3.org/2000/svg">
  <sodipodi:namedview
     id="namedview7"
     pagecolor="#ffffff"
     bordercolor="#000000"
     borderopacity="0.25"
     inkscape:showpageshadow="2"
     inkscape:pageopacity="0.0"
     inkscape:pagecheckerboard="0"
     inkscape:deskcolor="#d1d1d1"
     inkscape:document-units="mm"
     showgrid="false"
     inkscape:zoom="1.9459579"
     inkscape:cx="104.06186"
     inkscape:cy="145.94355"
     inkscape:window-width="1227"
     inkscape:window-height="865"
     inkscape:window-x="2145"
     inkscape:window-y="47"
     inkscape:window-maximized="0"
     inkscape:current-layer="layer1" />
  <defs
     id="defs2">
    <rect
       x="20.694298"
       y="20.694298"
       width="115.45136"
       height="126.43738"
       id="rect537" />
  </defs>
  <g
     inkscape:label="Layer 1"
     inkscape:groupmode="layer"
     id="layer1">
    <rect
       style="fill:#ffffff;stroke:#000000;stroke-width:0.7"
       id="rect234"
       width="47.939873"
       height="60.837402"
       x="2.555171"
       y="2.3118215"
       ry="0.18459445" />
    <text
       xml:space="preserve"
       transform="matrix(0.26458333,0,0,0.26458333,-1.7034473,-3.5285694)"
       id="text535"
       style="font-style:normal;font-variant:normal;font-weight:300;font-stretch:normal;font-size:106.667px;font-family:Calibri;-inkscape-font-specification:'Calibri, Light';font-variant-ligatures:normal;font-variant-caps:normal;font-variant-numeric:normal;font-variant-east-asian:normal;text-align:center;white-space:pre;shape-inside:url(#rect537);display:inline;fill:#ffffff;stroke:#000000;stroke-width:2.64567"><tspan
         x="51.388587"
         y="114.02698"
         id="tspan8691"><tspan
           style="fill:#0e0000"
           id="tspan8689">2</tspan></tspan></text>
    <path
       style="fill:#627bf0;fill-opacity:1;stroke:#000000;stroke-width:0.7"
       d="m 23.386083,44.324785 c 0.22661,-0.27193 0.443031,-0.552685 0.679828,-0.815792 0.460725,-0.511916 1.050176,-0.83997 1.495622,-1.359657 0.508101,-0.592785 0.359363,-0.539046 0.815794,-1.22369 0.53679,-0.805185 1.186795,-1.537073 1.767553,-2.311416 0.288702,-0.384937 0.768498,-0.901506 0.951759,-1.359656 0.259519,-0.648796 0.37688,-1.590233 0.815792,-2.175449 0.135967,-0.181288 0.247661,-0.383625 0.407898,-0.543862 0.03205,-0.03205 0.103918,0.03205 0.135967,0 0.03205,-0.03205 -0.02027,-0.09543 0,-0.135967 0.08599,-0.171984 0.292526,-0.254068 0.407894,-0.407895 0.116962,-0.155948 0.183423,-0.411101 0.271931,-0.543864 0.273185,-0.409776 0.741294,-0.666792 0.951762,-1.087723 0.118184,-0.236371 0.221028,-0.492961 0.407895,-0.679828 0.281318,-0.281319 -0.01101,0.429889 0.271931,-0.135967 0.02027,-0.04054 -0.03205,-0.103918 0,-0.135964 0.03205,-0.03205 0.10392,0.03205 0.135967,0 0.03205,-0.03205 0,-0.09064 0,-0.135967 0.04532,-0.09064 0.0643,-0.200271 0.135966,-0.271931 0.03205,-0.03205 0.09543,-0.02027 0.135964,0 0.314344,0.157173 0.20714,0.556623 0.271931,0.815793 0.123828,0.49531 0.5016,0.778118 0.679828,1.223692 0.223322,0.558303 0.371558,1.253765 0.679829,1.767552 0.06595,0.109921 0.214603,0.157273 0.271931,0.271931 0.235929,0.471855 0.272513,0.952338 0.679828,1.359656 0.355653,0.355653 0.796211,0.650455 1.087726,1.087724 0.157453,0.236183 0.268676,0.673319 0.407895,0.951759 0.204345,0.408688 0.531733,0.732649 0.815795,1.087726 0.333999,0.04848 0.05647,0.288647 0.135964,0.407897 0.125701,0.18855 0.24766,0.383625 0.407897,0.543862 0.281319,0.281318 -0.01101,-0.42989 0.271931,0.135966 0.448207,0.896411 1.06698,1.746806 1.767554,2.44738 0.161936,0.161936 0.679829,0.713455 0.679829,0.815793 0,0.04532 -0.03205,0.10392 0,0.135967 0.03205,0.03205 0.173675,-0.02514 0.135964,0 -0.168645,0.112429 -0.37006,0.16765 -0.543862,0.27193 -0.505719,0.303432 -1.542946,2.331196 -1.767554,2.855278 -0.138107,0.322254 -0.133821,0.629504 -0.271931,0.951759 -0.18193,0.424505 -0.570751,0.720161 -0.815792,1.087726 -0.276122,0.414181 -0.381344,0.961676 -0.679829,1.359657 -0.07691,0.102549 -0.205978,0.162009 -0.27193,0.27193 -0.07374,0.122897 -0.04421,0.297794 -0.135967,0.407895 -0.145071,0.174088 -0.373322,0.258675 -0.543862,0.407898 -0.546063,0.477806 -1.063175,1.054994 -1.49562,1.631587 -0.149942,0.199922 -0.174485,0.484931 -0.271934,0.679829 -0.156488,0.312978 -0.159491,-0.05928 -0.407895,0.27193 -0.166261,0.221684 -0.228692,0.576853 -0.407897,0.815796 -0.263237,0.35098 -0.577837,0.83844 -0.951759,1.087723 -0.08432,0.05622 -0.200272,0.06431 -0.271931,0.135966 -0.261446,0.261446 -0.350915,0.662337 -0.543862,0.95176 -0.02513,0.03771 -0.10392,-0.03205 -0.135967,0 -0.138371,0.138371 -0.751138,0.893757 -0.815795,1.087723 -0.02866,0.08599 0.04054,0.190857 0,0.271931 -0.01326,0.02651 -0.242427,0.106465 -0.271931,0.135966 -0.10134,0.101344 -0.05646,0.288648 -0.135964,0.407898 -0.09737,0.146058 -0.535315,0.679828 -0.543864,0.679828 -0.135964,0 0.02667,-0.274571 0,-0.407897 -0.08597,-0.429845 -0.349927,-0.835827 -0.543861,-1.22369 -0.781297,-1.562592 -1.930535,-2.854838 -2.583347,-4.486865 -0.17894,-0.447352 -0.483426,-0.781786 -0.679827,-1.22369 -0.486822,-1.095349 -0.777364,-2.283323 -1.223691,-3.399142 -0.149014,-0.372533 -0.33536,-1.012153 -0.543862,-1.359654 -0.06595,-0.109924 -0.224323,-0.152911 -0.271931,-0.271933 -0.0505,-0.126241 0.03298,-0.27599 0,-0.407895 -0.01554,-0.06218 -0.09064,-0.09064 -0.135966,-0.135967 -0.04532,-0.09064 -0.116091,-0.172556 -0.135966,-0.271931 -0.06148,-0.307417 -0.03714,-0.655288 -0.135965,-0.951759 -0.02027,-0.06081 -0.09064,-0.09064 -0.135966,-0.135967 -0.04532,-0.09064 -0.111386,-0.173614 -0.135965,-0.27193 -0.153799,-0.615194 -0.05281,0.143832 -0.271932,-0.95176 z"
       id="path5921" />
  </g>
</svg>
