<?xml version="1.0" encoding="UTF-8" standalone="no"?>
<!-- Created with Inkscape (http://www.inkscape.org/) -->

<svg
   width="200"
   height="250"
   viewBox="0 0 52.916665 66.145833"
   version="1.1"
   id="svg5"
   sodipodi:docname="heartTemplate.svg"
   inkscape:export-filename="Ad.png"
   inkscape:export-xdpi="96"
   inkscape:export-ydpi="96"
   inkscape:version="1.2.1 (9c6d41e410, 2022-07-14)"
   xmlns:inkscape="http://www.inkscape.org/namespaces/inkscape"
   xmlns:sodipodi="http://sodipodi.sourceforge.net/DTD/sodipodi-0.dtd"
   xmlns="http://www.w3.org/2000/svg"
   xmlns:svg="http://www.w3.org/2000/svg">
  <sodipodi:namedview
     id="namedview7"
     pagecolor="#ffffff"
     bordercolor="#000000"
     borderopacity="0.25"
     inkscape:showpageshadow="2"
     inkscape:pageopacity="0.0"
     inkscape:pagecheckerboard="0"
     inkscape:deskcolor="#d1d1d1"
     inkscape:document-units="mm"
     showgrid="false"
     inkscape:zoom="1.9459579"
     inkscape:cx="104.06186"
     inkscape:cy="145.94355"
     inkscape:window-width="1227"
     inkscape:window-height="865"
     inkscape:window-x="2145"
     inkscape:window-y="47"
     inkscape:window-maximized="0"
     inkscape:current-layer="layer1" />
  <defs
     id="defs2">
    <rect
       x="20.694298"
       y="20.694298"
       width="115.45136"
       height="126.43738"
       id="rect537" />
  </defs>
  <g
     inkscape:label="Layer 1"
     inkscape:groupmode="layer"
     id="layer1">
    <rect
       style="fill:#ffffff;stroke:#000000;stroke-width:0.7"
       id="rect234"
       width="47.939873"
       height="60.837402"
       x="2.555171"
       y="2.3118215"
       ry="0.18459445" />
    <text
       xml:space="preserve"
       transform="matrix(0.26458333,0,0,0.26458333,-1.7034473,-3.5285694)"
       id="text535"
       style="font-style:normal;font-variant:normal;font-weight:300;font-stretch:normal;font-size:106.667px;font-family:Calibri;-inkscape-font-specification:'Calibri, Light';font-variant-ligatures:normal;font-variant-caps:normal;font-variant-numeric:normal;font-variant-east-asian:normal;text-align:center;white-space:pre;shape-inside:url(#rect537);display:inline;fill:#ffffff;stroke:#000000;stroke-width:2.64567"><tspan
         x="51.388587"
         y="114.02698"
         id="tspan11050"><tspan
           style="fill:#0e0000"
           id="tspan11048">2</tspan></tspan></text>
    <path
       style="fill:#fb3a31;fill-opacity:1;stroke:#000000;stroke-width:0.7"
       d="m 32.903676,41.877405 c -0.541782,-0.08124 -0.323139,-0.731035 -0.543862,-0.951759 -0.281318,-0.281318 0.01101,0.42989 -0.271931,-0.135966 -0.02027,-0.04054 0.03205,-0.103918 0,-0.135965 -0.03205,-0.03205 -0.09543,0.02027 -0.135967,0 -0.184639,-0.09232 -0.396441,-0.425926 -0.543861,-0.543864 -0.412197,-0.329755 -0.92192,-0.460957 -1.359657,-0.679825 -0.152889,-0.07645 -0.24684,-0.354211 -0.407897,-0.407898 -0.08599,-0.02867 -0.18777,0.03366 -0.271931,0 -0.35641,0.119184 -0.33346,-0.323736 -0.543862,-0.407898 -0.173503,-0.0694 -0.368895,-0.07035 -0.543864,-0.135966 -1.235813,-0.463429 -1.124866,-0.815793 -2.44738,-0.815793 -0.06048,0 -0.459485,-0.04219 -0.543862,0 -0.09064,0.04532 -0.200271,0.06431 -0.271931,0.135967 -0.03205,0.03205 0.04054,0.115697 0,0.135964 -0.08107,0.04054 -0.190858,-0.04054 -0.271932,0 -0.01684,0.0084 -0.158382,0.351123 -0.271931,0.407898 -0.187545,0.09377 -0.121617,-0.164661 -0.271931,0.135964 -0.07199,0.143986 -0.08329,0.385823 -0.135966,0.543864 -0.328285,0.984856 0.0392,-0.214365 -0.271931,0.407898 -0.05369,0.10737 0.03822,0.293229 0,0.407894 -0.09349,0.280464 -0.336308,0.52944 -0.407897,0.815795 -0.437755,1.751018 -0.407897,3.328586 -0.407897,5.166694 0,0.892466 -0.141084,2.024126 0.135966,2.855277 0.0933,0.279903 0.327797,0.631357 0.407897,0.951759 0.229847,0.91939 0.508703,1.675353 1.087725,2.44738 0.121611,0.162148 0.128611,0.400542 0.271931,0.543862 0.314013,0.314013 0.821142,0.551886 1.087725,0.951759 0.160039,0.240059 0.289027,0.50994 0.543862,0.679828 0.359212,0.239475 0.842254,0.353145 1.22369,0.543862 0.208243,0.104122 0.106328,0.242295 0.271931,0.407898 0.415965,0.415964 1.139597,0.569798 1.631588,0.815795 0.171984,0.08599 0.254068,0.292526 0.407897,0.407895 0.211415,0.158562 0.468413,0.249335 0.679828,0.407897 0.298334,0.22375 0.534115,0.59045 0.815793,0.815793 0.09812,0.07849 0.458163,0.186232 0.543864,0.271933 0.03205,0.03205 -0.02027,0.09543 0,0.135964 0.09105,0.182107 0.324363,0.188399 0.407895,0.271931 0.03205,0.03205 -0.04532,0.135967 0,0.135967 0.09064,0 -0.02866,-0.185939 0,-0.271931 0.01505,-0.04518 0.240448,-0.512379 0.271931,-0.543864 0.03205,-0.03205 0.10392,0.03205 0.135967,0 0.08531,-0.08532 0.03084,-0.574702 0.135966,-0.679826 0.03205,-0.03205 0.103918,0.03205 0.135964,0 0.03205,-0.03205 -0.03205,-0.103921 0,-0.135967 0.03205,-0.03205 0.103918,0.03205 0.135967,0 0.03205,-0.03205 -0.03205,-0.103918 0,-0.135967 0.03205,-0.03205 0.09064,0 0.135964,0 0.04532,-0.09064 0.07975,-0.187608 0.135967,-0.27193 0.275563,-0.413346 0.961427,-0.752645 1.359657,-0.95176 0.114654,-0.05733 0.157273,-0.214603 0.27193,-0.27193 0.334876,-0.167439 -0.122742,0.394673 0.407895,-0.135964 0.07166,-0.07166 0.05683,-0.208624 0.135967,-0.271934 0.339913,-0.271931 0.509871,-0.203946 0.815792,-0.407895 0.471623,-0.314415 1.030788,-0.875064 1.495624,-1.22369 0.114654,-0.08599 0.306554,-0.03462 0.407895,-0.135967 0.160239,-0.160236 0.205213,-0.44252 0.407897,-0.543861 0.176903,-0.08845 0.524677,-0.168497 0.679829,-0.271934 0.407897,-0.27193 0.135966,-0.203946 0.407897,-0.407894 0.158967,-0.246746 0.468413,-0.249336 0.679828,-0.407898 0.362331,-0.271748 0.446022,-0.655942 0.815793,-0.951759 0.348205,-0.278564 0.824955,-0.557604 1.087726,-0.951759 0.207632,-0.311449 0.596109,-0.805104 0.679828,-1.22369 0.02667,-0.133326 -0.0505,-0.281657 0,-0.407898 0.397931,-0.99483 0.203825,0.544603 0.407895,-0.679828 0.03726,-0.223525 -0.07166,-0.464847 0,-0.679829 0.02027,-0.0608 0.123396,-0.07311 0.135967,-0.135964 0.181512,-0.907557 0,-2.045133 0,-2.991244 0,-0.428908 0.110797,-2.36175 0,-2.583346 -0.23962,-0.479238 -0.434846,-1.005653 -0.679829,-1.495621 -0.04054,-0.08107 0.04054,-0.190857 0,-0.271931 -0.03462,-0.06925 -0.633584,-0.905515 -0.679828,-0.951759 -0.375986,-0.375986 -2.309484,-0.952725 -2.855277,-0.679829 -0.04054,0.02027 0.03205,0.103918 0,0.135965 -0.161018,0.161017 -1.316863,0.522467 -1.631588,0.679828 -0.501708,0.250854 -1.008242,0.586227 -1.495621,0.951759 -0.04848,0.334002 -0.288647,0.05647 -0.407897,0.135967 -0.300903,0.200602 -0.49402,0.654907 -0.815793,0.815792 -0.927041,0.463521 -1.839137,0.822997 -2.311415,1.767554 z"
       id="path9162" />
  </g>
</svg>
