<?xml version="1.0" encoding="UTF-8" standalone="no"?>
<!-- Created with Inkscape (http://www.inkscape.org/) -->

<svg
   width="200"
   height="250"
   viewBox="0 0 52.916665 66.145833"
   version="1.1"
   id="svg5"
   sodipodi:docname="spadeTemplate.svg"
   inkscape:export-filename="2s.png"
   inkscape:export-xdpi="96"
   inkscape:export-ydpi="96"
   inkscape:version="1.2.1 (9c6d41e410, 2022-07-14)"
   xmlns:inkscape="http://www.inkscape.org/namespaces/inkscape"
   xmlns:sodipodi="http://sodipodi.sourceforge.net/DTD/sodipodi-0.dtd"
   xmlns="http://www.w3.org/2000/svg"
   xmlns:svg="http://www.w3.org/2000/svg">
  <sodipodi:namedview
     id="namedview7"
     pagecolor="#ffffff"
     bordercolor="#000000"
     borderopacity="0.25"
     inkscape:showpageshadow="2"
     inkscape:pageopacity="0.0"
     inkscape:pagecheckerboard="0"
     inkscape:deskcolor="#d1d1d1"
     inkscape:document-units="mm"
     showgrid="false"
     inkscape:zoom="2.1745121"
     inkscape:cx="73.809662"
     inkscape:cy="116.80781"
     inkscape:window-width="1227"
     inkscape:window-height="865"
     inkscape:window-x="2145"
     inkscape:window-y="47"
     inkscape:window-maximized="0"
     inkscape:current-layer="layer1" />
  <defs
     id="defs2">
    <rect
       x="20.694298"
       y="20.694298"
       width="93.354276"
       height="122.32629"
       id="rect537" />
  </defs>
  <g
     inkscape:label="Layer 1"
     inkscape:groupmode="layer"
     id="layer1">
    <rect
       style="fill:#ffffff;stroke:#000000;stroke-width:0.7"
       id="rect234"
       width="47.939873"
       height="60.837402"
       x="2.555171"
       y="2.3118215"
       ry="0.18459445" />
    <text
       xml:space="preserve"
       transform="matrix(0.26458333,0,0,0.26458333,-1.7034473,-3.5285694)"
       id="text535"
       style="font-style:normal;font-variant:normal;font-weight:300;font-stretch:normal;font-size:106.667px;font-family:Calibri;-inkscape-font-specification:'Calibri, Light';font-variant-ligatures:normal;font-variant-caps:normal;font-variant-numeric:normal;font-variant-east-asian:normal;text-align:center;white-space:pre;shape-inside:url(#rect537);fill:#ffffff;stroke:#000000;stroke-width:2.64567"><tspan
         x="40.339759"
         y="114.02698"
         id="tspan2816"><tspan
           style="fill:#0e0000"
           id="tspan2814">3</tspan></tspan></text>
    <path
       style="fill:#0e0000;fill-opacity:1;stroke:#000000;stroke-width:0.7"
       d="m 26.403432,56.578785 c 1.120587,-0.268989 2.243675,-0.24335 3.406894,-0.24335 0.289761,0 0.698114,-0.06882 0.973399,0 0.05564,0.01392 0.06726,0.103536 0.121674,0.121673 0.420944,0.140314 3.165962,0 3.771919,0 0.442616,0 1.855025,0.09177 2.190147,-0.243347 0.02868,-0.02868 -0.02868,-0.093 0,-0.121677 0.02868,-0.02868 0.09299,0.02868 0.121676,0 0.171371,-0.171371 -1.271548,-0.784847 -1.460098,-0.973397 -0.230364,-0.230367 -1.048416,-0.950071 -1.338424,-1.095073 -0.03628,-0.01815 -0.09299,0.02868 -0.121674,0 -0.06413,-0.06413 -0.05755,-0.179224 -0.121673,-0.243351 -0.145445,-0.145444 -0.446268,-0.283969 -0.608375,-0.365024 -0.162965,-0.08148 -0.168596,-0.290272 -0.243351,-0.365025 -0.02868,-0.02868 -0.093,0.02868 -0.121674,0 -0.04959,-0.04959 -0.575551,-0.6644 -0.608375,-0.730048 -0.131842,-0.263684 -0.381058,-0.518769 -0.486698,-0.730049 -0.03628,-0.07255 0.02564,-0.166397 0,-0.243351 -0.05169,-0.155054 -0.178705,-0.357407 -0.243351,-0.486698 -0.09868,-0.197364 -0.261577,-0.401479 -0.365024,-0.608375 -0.03627,-0.07255 0.05736,-0.185992 0,-0.243348 -0.162232,-0.162235 -0.121674,0.20279 -0.121674,-0.121677 0,-0.178112 0.0057,-0.973396 -0.243351,-0.973396 -0.146235,0 0.234228,0.17795 0.365025,0.24335 0.20143,0.100714 0.363667,0.202565 0.608375,0.243348 0.361151,-0.06616 0.643496,0.188367 0.973399,0.24335 0.692947,0.115491 1.789973,0.09283 2.433495,-0.121674 1.024125,-0.341376 2.614424,-1.693939 2.798521,-2.798521 0.100664,-0.60398 0.0016,-1.224767 0.121674,-1.825122 0.01778,-0.08893 0.103889,-0.154419 0.121674,-0.243351 0.161206,-0.806027 -0.0032,-2.686513 -0.243348,-3.406894 -0.1208,-0.362397 -1.603965,-1.596567 -1.946798,-1.825122 -0.03375,-0.02249 -0.08112,0 -0.121674,0 -0.08112,-0.04056 -0.170797,-0.06726 -0.243351,-0.121674 -0.09177,-0.06883 -0.143748,-0.186434 -0.243348,-0.243351 -0.570132,-0.325789 -1.145204,-0.532728 -1.703448,-0.851723 -0.205333,-0.117334 -0.411599,-0.233841 -0.608372,-0.365024 -0.172069,-0.114713 -0.295265,-0.422886 -0.486701,-0.486698 -0.07695,-0.02564 -0.178457,0.04867 -0.243348,0 -0.116988,-0.08774 -0.139946,-0.261623 -0.243351,-0.365025 -0.02868,-0.02868 -0.0854,0.01815 -0.121674,0 -0.375679,-0.187838 -0.854995,-0.610555 -1.21675,-0.851725 -0.122745,-0.08183 -0.533868,-0.168844 -0.608372,-0.243348 -0.02868,-0.02868 0.02868,-0.093 0,-0.121677 -0.06413,-0.06413 -0.162235,-0.08112 -0.243351,-0.121674 -0.04056,-0.08112 -0.05755,-0.179221 -0.121673,-0.24335 -0.448829,-0.448826 -0.0491,0.29138 -0.486701,-0.365025 -0.02249,-0.03374 0.02868,-0.09299 0,-0.121674 -0.255236,-0.255235 -0.618427,-0.418989 -0.851723,-0.730049 -0.512059,-0.682746 -0.856716,-1.353399 -1.095074,-2.06847 -0.03848,-0.115432 0,0.243348 0,0.365025 0,0.09218 -0.18705,0.767273 -0.24335,0.851723 -0.182309,0.273465 -0.198258,0.573783 -0.365025,0.851722 -0.14338,0.238972 -0.520687,0.588669 -0.608372,0.851723 -0.02565,0.07695 0.03628,0.170799 0,0.243351 -0.01814,0.03628 -0.103537,-0.03628 -0.121675,0 -0.03628,0.07255 0.03628,0.170796 0,0.24335 -0.01814,0.03628 -0.093,-0.02868 -0.121675,0 -0.129935,0.129935 -0.221392,0.343067 -0.365024,0.486699 -0.292464,0.292465 0.03848,-0.06413 -0.365025,0.608375 -0.218912,0.364852 -0.01584,-0.03 -0.243349,0.121674 -0.705483,0.47032 -0.0901,0.05853 -0.24335,0.365024 -0.08148,0.162965 -0.290271,0.168595 -0.365025,0.243351 -0.02868,0.02868 0.02868,0.093 0,0.121674 -0.02868,0.02868 -0.08793,-0.02249 -0.121674,0 -0.770513,0.513675 0.07527,0.07149 -0.365025,0.365024 -0.07853,0.05235 -0.434003,0.190653 -0.486699,0.24335 -0.02868,0.02868 0.02433,0.08923 0,0.121674 -0.01272,0.01696 -1.095819,1.054765 -1.216748,1.095074 -0.07695,0.02564 -0.170797,-0.03628 -0.243349,0 -0.03628,0.01812 0.02868,0.093 0,0.121674 -0.22667,0.226671 -0.625055,0.381706 -0.851724,0.608375 -0.02868,0.02868 0.02868,0.093 0,0.121674 -0.201678,0.201678 -0.586501,0.321281 -0.730049,0.608375 -0.09261,0.185224 -0.223515,0.419695 -0.365024,0.608375 -0.05993,0.07991 -0.546933,0.668604 -0.608374,0.730048 -0.06413,0.06413 -0.193044,0.04622 -0.24335,0.121674 -0.045,0.06749 0.03628,0.170797 0,0.243348 -0.01814,0.03628 -0.08112,0 -0.121675,0 -0.04056,0.08112 -0.08112,0.162235 -0.121675,0.243351 -0.723213,1.446427 -0.975302,3.646437 -0.243349,5.110342 0.03628,0.07255 -0.03628,0.170797 0,0.243351 0.121107,0.242212 0.418369,0.334695 0.608374,0.486698 0.179156,0.143325 0.281489,0.384093 0.486699,0.486698 0.436213,0.218107 1.115155,0.541716 1.581772,0.608375 0.257405,0.03677 0.947335,-0.134707 1.216748,0 0.524968,0.262483 1.966393,0.390544 2.555171,0.243348 0.290063,-0.07251 0.714903,-0.114101 0.973399,-0.243348 0.358332,-0.179165 0.08032,-0.141755 0.486699,-0.24335 0.101458,-0.02537 0.419545,-0.365025 0.486699,-0.365025 0.106071,0 -0.453612,0.630794 -0.486699,0.730049 -0.07506,0.225171 0.03822,0.22021 -0.121673,0.486699 -0.116232,0.193717 -0.426867,0.490715 -0.486701,0.730049 -0.130816,0.523263 -0.361863,0.967078 -0.608374,1.460097 -0.195583,0.391166 -0.292463,0.828279 -0.486699,1.21675 -0.02565,0.0513 -0.103537,0.06726 -0.121675,0.121674 -0.02565,0.07695 0.02565,0.166397 0,0.243351 -0.03628,0.108828 -0.207073,0.134519 -0.24335,0.243348 -0.02565,0.07695 0.02565,0.166396 0,0.24335 -0.08932,0.267957 -0.362169,0.602663 -0.486699,0.851723 -0.04867,0.09734 0.04867,0.267684 0,0.365025 -0.0513,0.102605 -0.192047,0.140745 -0.243349,0.24335 -0.05111,0.102222 -0.05479,0.541488 -0.121675,0.608375 -0.02868,0.02868 -0.121675,-0.04056 -0.121675,0 0,0.04056 0.08112,0 0.121675,0 0.162233,0 0.324466,0 0.486699,0 0.730049,0 1.460098,0 2.190146,0 z"
       id="path1288" />
  </g>
</svg>
